<svg xmlns="http://www.w3.org/2000/svg" xmlns:xlink="http://www.w3.org/1999/xlink" width="1920" zoomAndPan="magnify" viewBox="0 0 1440 404.99999" height="540" preserveAspectRatio="xMidYMid meet" version="1.0"><defs><g/></defs><g fill="#f4f3e1" fill-opacity="1"><g transform="translate(8.827085, 373.389854)"><g><path d="M 57.15625 -302.015625 C 50.738281 -302.015625 45.222656 -299.707031 40.609375 -295.09375 C 35.992188 -290.476562 33.6875 -284.960938 33.6875 -278.546875 L 6.625 -278.546875 C 6.625 -300.210938 16.847656 -315.859375 37.296875 -325.484375 C 43.316406 -327.890625 49.734375 -329.09375 56.546875 -329.09375 L 167.25 -329.09375 C 196.125 -329.09375 218.679688 -319.863281 234.921875 -301.40625 C 251.171875 -282.957031 259.296875 -258.695312 259.296875 -228.625 C 259.296875 -195.332031 249.671875 -169.5625 230.421875 -151.3125 C 211.171875 -133.0625 184.296875 -123.9375 149.796875 -123.9375 C 136.566406 -123.9375 125.539062 -124.738281 116.71875 -126.34375 L 116.71875 -152.8125 L 161.234375 -150.40625 C 182.890625 -150.40625 199.9375 -157.820312 212.375 -172.65625 C 224.8125 -187.5 231.03125 -206.351562 231.03125 -229.21875 C 231.03125 -251.28125 224.710938 -268.828125 212.078125 -281.859375 C 199.441406 -294.898438 182.09375 -301.617188 160.03125 -302.015625 L 96.859375 -302.015625 L 96.859375 0.609375 L 67.375 0.609375 L 67.375 -302.015625 Z M 57.15625 -302.015625 "/></g></g></g><g fill="#f4f3e1" fill-opacity="1"><g transform="translate(301.818688, 373.389854)"><g><path d="M 58.953125 -286.96875 C 58.953125 -291.382812 57.546875 -294.992188 54.734375 -297.796875 C 51.929688 -300.609375 48.523438 -302.015625 44.515625 -302.015625 C 39.703125 -302.015625 35.492188 -299.609375 31.890625 -294.796875 L 6.625 -311.640625 C 15.84375 -324.878906 28.273438 -331.5 43.921875 -331.5 C 63.972656 -331.5 77.8125 -322.273438 85.4375 -303.828125 C 87.84375 -298.609375 89.046875 -292.988281 89.046875 -286.96875 L 89.046875 -184.703125 L 266.515625 -184.703125 L 266.515625 -329.09375 L 296 -329.09375 L 296 0 L 266.515625 0 L 266.515625 -157.625 L 89.046875 -157.625 L 89.046875 0 L 58.953125 0 Z M 58.953125 -286.96875 "/></g></g></g><g fill="#f4f3e1" fill-opacity="1"><g transform="translate(638.72887, 373.389854)"><g><path d="M 55.34375 0 L 25.875 0 L 25.875 -329.09375 L 55.34375 -329.09375 Z M 55.34375 0 "/></g></g></g><g fill="#f4f3e1" fill-opacity="1"><g transform="translate(736.793702, 373.389854)"><g><path d="M 55.34375 -27.671875 L 212.96875 -27.671875 L 212.96875 0 L 25.875 0 L 25.875 -329.09375 L 55.34375 -329.09375 Z M 55.34375 -27.671875 "/></g></g></g><g fill="#f4f3e1" fill-opacity="1"><g transform="translate(968.419362, 373.389854)"><g><path d="M 19.25 -158.828125 L 19.25 -167.859375 C 19.25 -216.785156 35.191406 -257.691406 67.078125 -290.578125 C 98.960938 -323.472656 138.972656 -339.921875 187.109375 -339.921875 C 234.835938 -339.921875 274.84375 -323.375 307.125 -290.28125 C 339.414062 -257.195312 355.5625 -216.390625 355.5625 -167.859375 L 355.5625 -158.828125 C 355.5625 -109.898438 339.816406 -68.988281 308.328125 -36.09375 C 276.847656 -3.207031 237.039062 13.234375 188.90625 13.234375 C 140.78125 13.234375 100.472656 -3.410156 67.984375 -36.703125 C 35.492188 -69.992188 19.25 -110.703125 19.25 -158.828125 Z M 328.484375 -158.828125 L 328.484375 -167.859375 C 328.484375 -209.566406 315.046875 -244.257812 288.171875 -271.9375 C 261.304688 -299.613281 227.414062 -313.453125 186.5 -313.453125 C 146.394531 -313.453125 113.003906 -299.410156 86.328125 -271.328125 C 59.660156 -243.253906 46.328125 -208.765625 46.328125 -167.859375 L 46.328125 -158.828125 C 46.328125 -118.316406 59.660156 -83.921875 86.328125 -55.640625 C 113.003906 -27.367188 146.394531 -13.234375 186.5 -13.234375 C 227.414062 -13.234375 261.304688 -27.171875 288.171875 -55.046875 C 315.046875 -82.921875 328.484375 -117.515625 328.484375 -158.828125 Z M 328.484375 -158.828125 "/></g></g></g><g fill="#f4f3e1" fill-opacity="1"><g transform="translate(1357.670984, 373.389854)"><g><path d="M 51.734375 -76.40625 L 24.671875 -76.40625 L 19.859375 -338.71875 L 56.546875 -338.71875 Z M 13.84375 -22.265625 C 13.84375 -28.679688 16.144531 -34.191406 20.75 -38.796875 C 25.363281 -43.410156 30.878906 -45.71875 37.296875 -45.71875 C 43.710938 -45.71875 49.226562 -43.410156 53.84375 -38.796875 C 58.457031 -34.191406 60.765625 -28.679688 60.765625 -22.265625 C 60.765625 -15.847656 58.457031 -10.429688 53.84375 -6.015625 C 49.226562 -1.597656 43.710938 0.609375 37.296875 0.609375 C 30.878906 0.609375 25.363281 -1.695312 20.75 -6.3125 C 16.144531 -10.925781 13.84375 -16.242188 13.84375 -22.265625 Z M 13.84375 -22.265625 "/></g></g></g></svg>