<svg xmlns="http://www.w3.org/2000/svg" xmlns:xlink="http://www.w3.org/1999/xlink" width="540" zoomAndPan="magnify" viewBox="0 0 404.88 1439.999935" height="1920" preserveAspectRatio="xMidYMid meet" version="1.0"><defs><g/></defs><g fill="#f4f3e1" fill-opacity="1"><g transform="translate(39.210648, 32.371223)"><g><path d="M 288.46875 54.59375 C 288.46875 48.457031 286.265625 43.1875 281.859375 38.78125 C 277.453125 34.382812 272.1875 32.1875 266.0625 32.1875 L 266.0625 6.328125 C 286.75 6.328125 301.6875 16.09375 310.875 35.625 C 313.175781 41.375 314.328125 47.503906 314.328125 54.015625 L 314.328125 159.75 C 314.328125 187.332031 305.515625 208.878906 287.890625 224.390625 C 270.273438 239.910156 247.097656 247.671875 218.359375 247.671875 C 186.566406 247.671875 161.953125 238.472656 144.515625 220.078125 C 127.085938 201.691406 118.375 176.023438 118.375 143.078125 C 118.375 130.441406 119.140625 119.910156 120.671875 111.484375 L 145.953125 111.484375 L 143.65625 154 C 143.65625 174.6875 150.742188 190.96875 164.921875 202.84375 C 179.097656 214.71875 197.101562 220.65625 218.9375 220.65625 C 240.007812 220.65625 256.769531 214.617188 269.21875 202.546875 C 281.664062 190.484375 288.082031 173.921875 288.46875 152.859375 L 288.46875 92.515625 L -0.578125 92.515625 L -0.578125 64.359375 L 288.46875 64.359375 Z M 288.46875 54.59375 "/></g></g></g><g fill="#f4f3e1" fill-opacity="1"><g transform="translate(39.210648, 312.221175)"><g><path d="M 274.109375 56.3125 C 278.316406 56.3125 281.757812 54.96875 284.4375 52.28125 C 287.125 49.601562 288.46875 46.347656 288.46875 42.515625 C 288.46875 37.921875 286.171875 33.898438 281.578125 30.453125 L 297.65625 6.328125 C 310.300781 15.128906 316.625 27.003906 316.625 41.953125 C 316.625 61.109375 307.8125 74.320312 290.1875 81.59375 C 285.207031 83.894531 279.847656 85.046875 274.109375 85.046875 L 176.421875 85.046875 L 176.421875 254.5625 L 314.328125 254.5625 L 314.328125 282.71875 L 0 282.71875 L 0 254.5625 L 150.5625 254.5625 L 150.5625 85.046875 L 0 85.046875 L 0 56.3125 Z M 274.109375 56.3125 "/></g></g></g><g fill="#f4f3e1" fill-opacity="1"><g transform="translate(39.210648, 634.019811)"><g><path d="M 0 52.859375 L 0 24.703125 L 314.328125 24.703125 L 314.328125 52.859375 Z M 0 52.859375 "/></g></g></g><g fill="#f4f3e1" fill-opacity="1"><g transform="translate(39.210648, 727.686108)"><g><path d="M 26.4375 52.859375 L 26.4375 203.421875 L 0 203.421875 L 0 24.703125 L 314.328125 24.703125 L 314.328125 52.859375 Z M 26.4375 52.859375 "/></g></g></g><g fill="#f4f3e1" fill-opacity="1"><g transform="translate(39.210648, 948.922584)"><g><path d="M 151.703125 18.390625 L 160.328125 18.390625 C 207.066406 18.390625 246.140625 33.613281 277.546875 64.0625 C 308.960938 94.519531 324.671875 132.738281 324.671875 178.71875 C 324.671875 224.300781 308.867188 262.507812 277.265625 293.34375 C 245.660156 324.1875 206.679688 339.609375 160.328125 339.609375 L 151.703125 339.609375 C 104.960938 339.609375 65.882812 324.570312 34.46875 294.5 C 3.0625 264.425781 -12.640625 226.40625 -12.640625 180.4375 C -12.640625 134.46875 3.253906 95.96875 35.046875 64.9375 C 66.847656 33.90625 105.734375 18.390625 151.703125 18.390625 Z M 151.703125 313.75 L 160.328125 313.75 C 200.171875 313.75 233.304688 300.914062 259.734375 275.25 C 286.171875 249.582031 299.390625 217.210938 299.390625 178.140625 C 299.390625 139.828125 285.976562 107.929688 259.15625 82.453125 C 232.34375 56.984375 199.398438 44.25 160.328125 44.25 L 151.703125 44.25 C 113.015625 44.25 80.164062 56.984375 53.15625 82.453125 C 26.144531 107.929688 12.640625 139.828125 12.640625 178.140625 C 12.640625 217.210938 25.953125 249.582031 52.578125 275.25 C 79.203125 300.914062 112.242188 313.75 151.703125 313.75 Z M 151.703125 313.75 "/></g></g></g><g fill="#f4f3e1" fill-opacity="1"><g transform="translate(39.210648, 1320.714972)"><g><path d="M 72.984375 49.421875 L 72.984375 23.5625 L 323.515625 18.96875 L 323.515625 54.015625 Z M 21.265625 13.21875 C 27.390625 13.21875 32.65625 15.421875 37.0625 19.828125 C 41.46875 24.234375 43.671875 29.5 43.671875 35.625 C 43.671875 41.757812 41.46875 47.023438 37.0625 51.421875 C 32.65625 55.828125 27.382812 58.03125 21.25 58.03125 C 15.125 58.03125 9.953125 55.828125 5.734375 51.421875 C 1.523438 47.023438 -0.578125 41.757812 -0.578125 35.625 C -0.578125 29.5 1.625 24.234375 6.03125 19.828125 C 10.4375 15.421875 15.515625 13.21875 21.265625 13.21875 Z M 21.265625 13.21875 "/></g></g></g></svg>