<svg xmlns="http://www.w3.org/2000/svg" xmlns:xlink="http://www.w3.org/1999/xlink" width="1920" zoomAndPan="magnify" viewBox="0 0 1440 404.99999" height="540" preserveAspectRatio="xMidYMid meet" version="1.0"><defs><g/></defs><g fill="#f4f3e1" fill-opacity="1"><g transform="translate(113.464761, 379.810569)"><g><path d="M 18.765625 -348.75 L 117.90625 -348.75 C 143.6875 -348.75 165.890625 -339.429688 184.515625 -320.796875 C 202.640625 -302.171875 211.703125 -279.96875 211.703125 -254.1875 C 211.703125 -227.90625 202.640625 -205.703125 184.515625 -187.578125 C 165.628906 -169.203125 143.425781 -160.015625 117.90625 -160.015625 L 52.453125 -160.015625 C 48.878906 -160.015625 47.09375 -158.226562 47.09375 -154.65625 L 47.09375 0 L 18.765625 0 Z M 117.90625 -319.65625 L 52.453125 -319.65625 C 48.878906 -319.65625 47.09375 -317.867188 47.09375 -314.296875 L 47.09375 -194.09375 C 47.09375 -190.257812 48.878906 -188.34375 52.453125 -188.34375 L 117.90625 -188.34375 C 135.519531 -188.34375 150.960938 -194.722656 164.234375 -207.484375 C 176.992188 -220.753906 183.375 -236.320312 183.375 -254.1875 C 183.375 -272.5625 176.992188 -288.128906 164.234375 -300.890625 C 151.210938 -313.398438 135.769531 -319.65625 117.90625 -319.65625 Z M 117.90625 -319.65625 "/></g></g></g><g fill="#f4f3e1" fill-opacity="1"><g transform="translate(343.92015, 379.810569)"><g><path d="M 212.84375 0 L 183.75 0 L 183.75 -154.65625 C 183.75 -157.976562 181.960938 -159.640625 178.390625 -159.640625 L 53.21875 -159.640625 C 49.382812 -159.640625 47.46875 -157.976562 47.46875 -154.65625 L 47.46875 0 L 18.765625 0 L 18.765625 -348.75 L 47.46875 -348.75 L 47.46875 -194.09375 C 47.46875 -190.257812 49.382812 -188.34375 53.21875 -188.34375 L 178.390625 -188.34375 C 181.960938 -188.34375 183.75 -190.257812 183.75 -194.09375 L 183.75 -348.75 L 212.84375 -348.75 Z M 212.84375 0 "/></g></g></g><g fill="#f4f3e1" fill-opacity="1"><g transform="translate(575.141265, 379.810569)"><g><path d="M 52.0625 0 L 23.359375 0 L 23.359375 -348.75 L 52.0625 -348.75 Z M 52.0625 0 "/></g></g><g transform="translate(650.556067, 379.810569)"><g><path d="M 47.46875 -348.75 L 47.46875 -68.90625 C 47.46875 -57.675781 51.359375 -48.171875 59.140625 -40.390625 C 66.929688 -32.609375 76.441406 -28.71875 87.671875 -28.71875 L 198.296875 -28.71875 L 198.296875 0 L 87.671875 0 C 68.273438 0 51.941406 -6.632812 38.671875 -19.90625 C 25.398438 -33.4375 18.765625 -49.769531 18.765625 -68.90625 L 18.765625 -348.75 Z M 47.46875 -348.75 "/></g></g></g><g fill="#f4f3e1" fill-opacity="1"><g transform="translate(867.612865, 379.810569)"><g><path d="M 70.828125 -299.75 C 105.535156 -334.457031 147.390625 -351.8125 196.390625 -351.8125 C 245.390625 -351.8125 287.242188 -334.457031 321.953125 -299.75 C 356.910156 -265.039062 374.390625 -223.1875 374.390625 -174.1875 C 374.390625 -125.1875 356.910156 -83.203125 321.953125 -48.234375 C 287.242188 -13.523438 245.390625 3.828125 196.390625 3.828125 C 147.390625 3.828125 105.535156 -13.523438 70.828125 -48.234375 C 36.117188 -83.203125 18.765625 -125.1875 18.765625 -174.1875 C 18.765625 -223.1875 36.117188 -265.039062 70.828125 -299.75 Z M 196.390625 -323.484375 C 155.296875 -323.484375 120.078125 -308.9375 90.734375 -279.84375 C 61.890625 -250.238281 47.46875 -215.019531 47.46875 -174.1875 C 47.46875 -133.601562 61.890625 -98.507812 90.734375 -68.90625 C 119.828125 -39.8125 155.046875 -25.265625 196.390625 -25.265625 C 238.242188 -25.265625 273.332031 -39.8125 301.65625 -68.90625 C 330.75 -98 345.296875 -133.09375 345.296875 -174.1875 C 345.296875 -215.53125 330.75 -250.75 301.65625 -279.84375 C 273.070312 -308.9375 237.984375 -323.484375 196.390625 -323.484375 Z M 196.390625 -323.484375 "/></g></g></g><g fill="#f4f3e1" fill-opacity="1"><g transform="translate(1260.382389, 379.810569)"><g><path d="M 47.46875 -88.046875 L 18.765625 -88.046875 L 18.765625 -348.75 L 47.46875 -348.75 Z M 47.46875 0 L 18.765625 0 L 18.765625 -43.265625 L 47.46875 -43.265625 Z M 47.46875 0 "/></g></g></g></svg>