<svg xmlns="http://www.w3.org/2000/svg" xmlns:xlink="http://www.w3.org/1999/xlink" width="540" zoomAndPan="magnify" viewBox="0 0 404.88 1439.999935" height="1920" preserveAspectRatio="xMidYMid meet" version="1.0"><defs><g/></defs><g fill="#f4f3e1" fill-opacity="1"><g transform="translate(36.685504, 161.813974)"><g><path d="M 332.90625 17.90625 L 332.90625 112.5625 C 332.90625 137.164062 324.015625 158.359375 306.234375 176.140625 C 288.453125 193.441406 267.257812 202.09375 242.65625 202.09375 C 217.5625 202.09375 196.363281 193.441406 179.0625 176.140625 C 161.519531 158.109375 152.75 136.914062 152.75 112.5625 L 152.75 50.0625 C 152.75 46.65625 151.046875 44.953125 147.640625 44.953125 L 0 44.953125 L 0 17.90625 Z M 305.140625 112.5625 L 305.140625 50.0625 C 305.140625 46.65625 303.4375 44.953125 300.03125 44.953125 L 185.28125 44.953125 C 181.625 44.953125 179.796875 46.65625 179.796875 50.0625 L 179.796875 112.5625 C 179.796875 129.363281 185.882812 144.097656 198.0625 156.765625 C 210.726562 168.953125 225.59375 175.046875 242.65625 175.046875 C 260.195312 175.046875 275.054688 168.953125 287.234375 156.765625 C 299.171875 144.347656 305.140625 129.613281 305.140625 112.5625 Z M 305.140625 112.5625 "/></g></g></g><g fill="#f4f3e1" fill-opacity="1"><g transform="translate(36.685504, 381.804627)"><g><path d="M 0 203.1875 L 0 175.40625 L 147.640625 175.40625 C 150.804688 175.40625 152.390625 173.703125 152.390625 170.296875 L 152.390625 50.796875 C 152.390625 47.140625 150.804688 45.3125 147.640625 45.3125 L 0 45.3125 L 0 17.90625 L 332.90625 17.90625 L 332.90625 45.3125 L 185.28125 45.3125 C 181.625 45.3125 179.796875 47.140625 179.796875 50.796875 L 179.796875 170.296875 C 179.796875 173.703125 181.625 175.40625 185.28125 175.40625 L 332.90625 175.40625 L 332.90625 203.1875 Z M 0 203.1875 "/></g></g></g><g fill="#f4f3e1" fill-opacity="1"><g transform="translate(36.685504, 602.526235)"><g><path d="M 0 49.703125 L 0 22.296875 L 332.90625 22.296875 L 332.90625 49.703125 Z M 0 49.703125 "/></g></g><g transform="translate(36.685504, 674.51653)"><g><path d="M 332.90625 45.3125 L 65.78125 45.3125 C 55.0625 45.3125 45.984375 49.023438 38.546875 56.453125 C 31.117188 63.890625 27.40625 72.96875 27.40625 83.6875 L 27.40625 189.296875 L 0 189.296875 L 0 83.6875 C 0 65.164062 6.332031 49.570312 19 36.90625 C 31.914062 24.238281 47.507812 17.90625 65.78125 17.90625 L 332.90625 17.90625 Z M 332.90625 45.3125 "/></g></g></g><g fill="#f4f3e1" fill-opacity="1"><g transform="translate(36.685504, 881.717008)"><g><path d="M 286.140625 67.609375 C 319.273438 100.742188 335.84375 140.695312 335.84375 187.46875 C 335.84375 234.25 319.273438 274.203125 286.140625 307.328125 C 253.003906 340.703125 213.046875 357.390625 166.265625 357.390625 C 119.492188 357.390625 79.421875 340.703125 46.046875 307.328125 C 12.910156 274.203125 -3.65625 234.25 -3.65625 187.46875 C -3.65625 140.695312 12.910156 100.742188 46.046875 67.609375 C 79.421875 34.472656 119.492188 17.90625 166.265625 17.90625 C 213.046875 17.90625 253.003906 34.472656 286.140625 67.609375 Z M 308.796875 187.46875 C 308.796875 148.25 294.910156 114.628906 267.140625 86.609375 C 238.878906 59.078125 205.257812 45.3125 166.28125 45.3125 C 127.539062 45.3125 94.039062 59.078125 65.78125 86.609375 C 38.007812 114.378906 24.125 148 24.125 187.46875 C 24.125 227.425781 38.007812 260.925781 65.78125 287.96875 C 93.550781 315.738281 127.050781 329.625 166.28125 329.625 C 205.738281 329.625 239.359375 315.738281 267.140625 287.96875 C 294.910156 260.675781 308.796875 227.175781 308.796875 187.46875 Z M 308.796875 187.46875 "/></g></g></g><g fill="#f4f3e1" fill-opacity="1"><g transform="translate(36.685504, 1256.651281)"><g><path d="M 84.046875 45.3125 L 84.046875 17.90625 L 332.90625 17.90625 L 332.90625 45.3125 Z M 0 45.3125 L 0 17.90625 L 41.296875 17.90625 L 41.296875 45.3125 Z M 0 45.3125 "/></g></g></g></svg>