<svg xmlns="http://www.w3.org/2000/svg" xmlns:xlink="http://www.w3.org/1999/xlink" width="1920" zoomAndPan="magnify" viewBox="0 0 1440 404.99999" height="540" preserveAspectRatio="xMidYMid meet" version="1.0"><defs><g/></defs><g fill="#f4f3e1" fill-opacity="1"><g transform="translate(6.095299, 328.491776)"><g><path d="M 407.953125 -276.046875 C 413.648438 -276.046875 417.378906 -273.875 419.140625 -269.53125 C 420.910156 -265.1875 420.910156 -260.84375 419.140625 -256.5 C 417.378906 -252.15625 413.648438 -249.984375 407.953125 -249.984375 C 394.109375 -249.984375 380.945312 -247.269531 368.46875 -241.84375 C 375.789062 -232.070312 380.535156 -221.210938 382.703125 -209.265625 C 384.878906 -197.328125 383.253906 -184.570312 377.828125 -171 C 373.484375 -159.875 366.695312 -149.832031 357.46875 -140.875 C 348.238281 -131.914062 337.582031 -124.378906 325.5 -118.265625 C 313.425781 -112.160156 300.738281 -107.679688 287.4375 -104.828125 C 274.132812 -101.984375 261.109375 -101.101562 248.359375 -102.1875 C 247.816406 -100.832031 247.132812 -99.75 246.3125 -98.9375 C 245.5 -98.125 244.820312 -97.3125 244.28125 -96.5 C 235.863281 -85.90625 226.160156 -74.835938 215.171875 -63.296875 C 204.179688 -51.765625 192.238281 -41.046875 179.34375 -31.140625 C 166.445312 -21.234375 152.804688 -13.566406 138.421875 -8.140625 C 124.035156 -2.710938 109.242188 -0.8125 94.046875 -2.4375 C 81.285156 -3.53125 69.207031 -7.0625 57.8125 -13.03125 C 46.414062 -19 36.507812 -26.800781 28.09375 -36.4375 C 19.675781 -46.070312 13.566406 -56.992188 9.765625 -69.203125 C 5.972656 -81.421875 5.296875 -94.316406 7.734375 -107.890625 C 10.722656 -123.359375 17.171875 -136.25 27.078125 -146.5625 C 36.984375 -156.882812 48.992188 -164.488281 63.109375 -169.375 C 77.222656 -174.257812 91.742188 -176.160156 106.671875 -175.078125 C 111.015625 -174.796875 114.269531 -173.226562 116.4375 -170.375 C 118.613281 -167.53125 119.703125 -164.34375 119.703125 -160.8125 C 119.703125 -157.289062 118.613281 -154.304688 116.4375 -151.859375 C 114.269531 -149.421875 111.015625 -148.335938 106.671875 -148.609375 C 98.796875 -149.148438 90.378906 -148.671875 81.421875 -147.171875 C 72.472656 -145.679688 64.265625 -142.898438 56.796875 -138.828125 C 49.328125 -134.765625 43.5625 -128.796875 39.5 -120.921875 C 35.425781 -113.046875 33.390625 -104.425781 33.390625 -95.0625 C 33.390625 -85.695312 35.082031 -76.601562 38.46875 -67.78125 C 41.863281 -58.96875 46.882812 -51.300781 53.53125 -44.78125 C 60.1875 -38.269531 68.128906 -33.925781 77.359375 -31.75 C 91.742188 -28.226562 105.582031 -28.160156 118.875 -31.546875 C 132.175781 -34.941406 144.9375 -40.570312 157.15625 -48.4375 C 169.375 -56.3125 180.640625 -65.335938 190.953125 -75.515625 C 201.265625 -85.703125 210.492188 -95.953125 218.640625 -106.265625 L 220.671875 -108.296875 C 210.359375 -112.367188 201.265625 -118.40625 193.390625 -126.40625 C 185.515625 -134.414062 179.816406 -144.9375 176.296875 -157.96875 C 175.203125 -162.039062 175.601562 -165.429688 177.5 -168.140625 C 179.40625 -170.859375 182.054688 -172.691406 185.453125 -173.640625 C 188.847656 -174.597656 192.101562 -174.394531 195.21875 -173.03125 C 198.34375 -171.675781 200.445312 -168.960938 201.53125 -164.890625 C 205.332031 -151.585938 212.390625 -141.953125 222.703125 -135.984375 C 225.960938 -133.816406 229.628906 -133.207031 233.703125 -134.15625 C 237.773438 -135.101562 240.894531 -137.207031 243.0625 -140.46875 C 254.457031 -157.5625 266.265625 -174.796875 278.484375 -192.171875 C 290.703125 -209.546875 304.140625 -225.148438 318.796875 -238.984375 C 320.691406 -240.617188 321.4375 -242.585938 321.03125 -244.890625 C 320.625 -247.203125 319.332031 -248.765625 317.15625 -249.578125 C 308.476562 -253.378906 299.390625 -255.414062 289.890625 -255.6875 C 269.523438 -256.5 250.859375 -253.710938 233.890625 -247.328125 C 216.929688 -240.953125 200.851562 -230.84375 185.65625 -217 C 182.664062 -214.019531 179.472656 -212.734375 176.078125 -213.140625 C 172.691406 -213.546875 169.84375 -214.96875 167.53125 -217.40625 C 165.226562 -219.851562 163.875 -222.769531 163.46875 -226.15625 C 163.0625 -229.550781 164.347656 -232.742188 167.328125 -235.734375 C 180.628906 -247.953125 195.894531 -258.398438 213.125 -267.078125 C 230.363281 -275.765625 248.484375 -281.191406 267.484375 -283.359375 C 286.484375 -285.535156 304.941406 -282.960938 322.859375 -275.640625 C 331.816406 -272.109375 339.960938 -267.765625 347.296875 -262.609375 C 347.835938 -261.523438 349.054688 -261.253906 350.953125 -261.796875 C 359.367188 -266.410156 368.328125 -270.003906 377.828125 -272.578125 C 387.328125 -275.160156 397.367188 -276.316406 407.953125 -276.046875 Z M 350.140625 -174.25 C 355.566406 -184.570312 357.671875 -194.273438 356.453125 -203.359375 C 355.234375 -212.453125 351.769531 -220.664062 346.0625 -228 C 335.476562 -220.125 325.570312 -210.625 316.34375 -199.5 C 307.113281 -188.375 298.425781 -176.566406 290.28125 -164.078125 C 282.144531 -151.585938 274.003906 -139.507812 265.859375 -127.84375 C 277.535156 -128.925781 289.003906 -131.640625 300.265625 -135.984375 C 311.523438 -140.328125 321.566406 -145.820312 330.390625 -152.46875 C 339.210938 -159.125 345.796875 -166.382812 350.140625 -174.25 Z M 350.140625 -174.25 "/></g></g></g><g fill="#f4f3e1" fill-opacity="1"><g transform="translate(342.396227, 328.491776)"><g><path d="M 341.59375 -275.640625 C 346.476562 -278.617188 350.75 -278.75 354.40625 -276.03125 C 358.070312 -273.320312 360.242188 -269.660156 360.921875 -265.046875 C 361.609375 -260.429688 359.507812 -256.632812 354.625 -253.65625 C 334.53125 -241.707031 317.085938 -227.179688 302.296875 -210.078125 C 287.503906 -192.984375 274.003906 -174.664062 261.796875 -155.125 C 265.316406 -153.488281 267.550781 -150.703125 268.5 -146.765625 C 269.457031 -142.835938 268.984375 -139.175781 267.078125 -135.78125 C 265.179688 -132.382812 261.65625 -130.6875 256.5 -130.6875 L 247.546875 -130.6875 C 247.003906 -129.332031 246.320312 -128.113281 245.5 -127.03125 C 244.6875 -125.945312 244.007812 -124.722656 243.46875 -123.359375 C 235.863281 -109.515625 227.71875 -94.859375 219.03125 -79.390625 C 210.351562 -63.921875 200.648438 -49.332031 189.921875 -35.625 C 179.203125 -21.914062 166.785156 -10.71875 152.671875 -2.03125 C 148.054688 0.675781 143.914062 0.675781 140.25 -2.03125 C 136.59375 -4.75 134.492188 -8.414062 133.953125 -13.03125 C 133.410156 -17.644531 135.445312 -21.304688 140.0625 -24.015625 C 156.070312 -33.785156 169.640625 -47.082031 180.765625 -63.90625 C 191.898438 -80.738281 202.082031 -97.976562 211.3125 -115.625 C 213.207031 -119.15625 213.132812 -122.546875 211.09375 -125.796875 C 209.0625 -129.054688 206.144531 -130.6875 202.34375 -130.6875 L 153.484375 -130.6875 C 145.890625 -130.6875 140.328125 -127.703125 136.796875 -121.734375 C 135.171875 -119.566406 133.609375 -117.460938 132.109375 -115.421875 C 130.617188 -113.390625 129.195312 -111.285156 127.84375 -109.109375 C 118.613281 -95.535156 108.84375 -81.960938 98.53125 -68.390625 C 88.21875 -54.828125 76.953125 -42.273438 64.734375 -30.734375 C 52.515625 -19.203125 38.804688 -9.632812 23.609375 -2.03125 C 18.722656 0.40625 14.378906 0.203125 10.578125 -2.640625 C 6.785156 -5.492188 4.6875 -9.160156 4.28125 -13.640625 C 3.875 -18.117188 6.113281 -21.578125 11 -24.015625 C 25.925781 -31.617188 39.289062 -41.117188 51.09375 -52.515625 C 62.90625 -63.921875 73.695312 -76.40625 83.46875 -89.96875 C 93.238281 -103.539062 102.738281 -117.25 111.96875 -131.09375 C 107.625 -131.914062 104.769531 -134.359375 103.40625 -138.421875 C 102.050781 -142.492188 102.320312 -146.5 104.21875 -150.4375 C 106.125 -154.375 109.65625 -156.34375 114.8125 -156.34375 L 118.890625 -156.34375 C 125.671875 -156.34375 130.960938 -159.054688 134.765625 -164.484375 L 135.578125 -165.296875 C 145.347656 -179.679688 155.59375 -193.457031 166.3125 -206.625 C 177.039062 -219.789062 188.507812 -232.207031 200.71875 -243.875 C 201.800781 -245.226562 202.003906 -246.582031 201.328125 -247.9375 C 200.648438 -249.300781 199.632812 -249.847656 198.28125 -249.578125 C 193.9375 -249.035156 189.59375 -248.222656 185.25 -247.140625 C 180.09375 -245.503906 176.085938 -246.382812 173.234375 -249.78125 C 170.390625 -253.175781 169.304688 -257.25 169.984375 -262 C 170.660156 -266.75 173.441406 -269.9375 178.328125 -271.5625 C 184.023438 -273.726562 189.585938 -275.285156 195.015625 -276.234375 C 200.441406 -277.191406 206.144531 -277.398438 212.125 -276.859375 C 218.363281 -276.316406 223.382812 -275.429688 227.1875 -274.203125 C 230.988281 -272.984375 235.875 -274.003906 241.84375 -277.265625 C 246.726562 -279.972656 250.929688 -280.035156 254.453125 -277.453125 C 257.984375 -274.878906 260.019531 -271.351562 260.5625 -266.875 C 261.113281 -262.394531 259.082031 -258.53125 254.46875 -255.28125 C 237.09375 -243.601562 221.550781 -230.300781 207.84375 -215.375 C 194.132812 -200.445312 181.175781 -184.707031 168.96875 -168.15625 C 167.0625 -165.707031 166.851562 -163.125 168.34375 -160.40625 C 169.84375 -157.695312 172.085938 -156.34375 175.078125 -156.34375 L 218.234375 -156.34375 C 227.453125 -156.34375 234.507812 -160.28125 239.40625 -168.15625 L 247.953125 -181.578125 C 260.429688 -199.765625 274.335938 -217.132812 289.671875 -233.6875 C 305.015625 -250.25 322.320312 -264.234375 341.59375 -275.640625 Z M 341.59375 -275.640625 "/></g></g></g><g fill="#f4f3e1" fill-opacity="1"><g transform="translate(596.04696, 328.491776)"><g><path d="M 166.515625 -274.40625 L 252.828125 -275.640625 C 258.265625 -275.640625 261.863281 -273.46875 263.625 -269.125 C 265.382812 -264.78125 265.382812 -260.503906 263.625 -256.296875 C 261.863281 -252.085938 258.265625 -249.984375 252.828125 -249.984375 L 241.84375 -249.984375 C 237.5 -249.984375 233.289062 -249.300781 229.21875 -247.9375 C 225.144531 -246.582031 221.617188 -244.28125 218.640625 -241.03125 C 202.890625 -222.03125 188.90625 -203.707031 176.6875 -186.0625 C 164.476562 -168.414062 153.082031 -151.109375 142.5 -134.140625 C 131.914062 -117.179688 121.394531 -100.351562 110.9375 -83.65625 C 100.488281 -66.96875 89.160156 -50.078125 76.953125 -32.984375 C 75.867188 -31.347656 75.734375 -29.648438 76.546875 -27.890625 C 77.359375 -26.128906 78.710938 -25.25 80.609375 -25.25 L 91.609375 -25.25 C 93.503906 -25.25 95.332031 -25.25 97.09375 -25.25 C 98.863281 -25.25 100.695312 -25.382812 102.59375 -25.65625 C 108.03125 -25.65625 111.628906 -23.484375 113.390625 -19.140625 C 115.148438 -14.796875 115.148438 -10.519531 113.390625 -6.3125 C 111.628906 -2.101562 108.03125 0 102.59375 0 C 88.207031 0.269531 73.890625 0.269531 59.640625 0 C 45.390625 -0.269531 30.9375 -0.269531 16.28125 0 C 10.851562 0 7.253906 -2.101562 5.484375 -6.3125 C 3.722656 -10.519531 3.722656 -14.796875 5.484375 -19.140625 C 7.253906 -23.484375 10.851562 -25.65625 16.28125 -25.65625 L 26.0625 -25.65625 C 36.101562 -25.65625 43.566406 -29.859375 48.453125 -38.265625 C 53.878906 -47.492188 61.140625 -59.300781 70.234375 -73.6875 C 79.328125 -88.070312 89.707031 -104.019531 101.375 -121.53125 C 113.050781 -139.039062 125.265625 -157.363281 138.015625 -176.5 C 150.773438 -195.632812 163.535156 -214.703125 176.296875 -233.703125 C 178.460938 -237.222656 178.800781 -240.679688 177.3125 -244.078125 C 175.820312 -247.472656 173.039062 -249.171875 168.96875 -249.171875 L 166.515625 -249.171875 C 161.085938 -249.171875 157.421875 -251.273438 155.515625 -255.484375 C 153.617188 -259.691406 153.617188 -263.894531 155.515625 -268.09375 C 157.421875 -272.300781 161.085938 -274.40625 166.515625 -274.40625 Z M 166.515625 -274.40625 "/></g></g></g><g fill="#f4f3e1" fill-opacity="1"><g transform="translate(750.354628, 328.491776)"><g><path d="M 210.90625 -87.53125 C 222.300781 -88.613281 231.660156 -86.507812 238.984375 -81.21875 C 246.316406 -75.925781 251.132812 -68.9375 253.4375 -60.25 C 255.75 -51.570312 255.207031 -42.753906 251.8125 -33.796875 C 248.425781 -24.835938 241.984375 -17.375 232.484375 -11.40625 C 220.804688 -3.800781 208.382812 -0.335938 195.21875 -1.015625 C 182.0625 -1.691406 168.832031 -3.117188 155.53125 -5.296875 C 140.0625 -8.003906 123.773438 -9.695312 106.671875 -10.375 C 89.566406 -11.0625 73.144531 -9.234375 57.40625 -4.890625 C 54.414062 -4.078125 51.5625 -3.257812 48.84375 -2.4375 C 46.132812 -1.625 43.425781 -0.539062 40.71875 0.8125 C 36.375 2.988281 31.210938 3.734375 25.234375 3.046875 C 19.265625 2.367188 14.175781 0.472656 9.96875 -2.640625 C 5.769531 -5.765625 4.210938 -9.769531 5.296875 -14.65625 C 6.648438 -20.625 10.582031 -24.15625 17.09375 -25.25 C 28.769531 -26.601562 39.492188 -30.941406 49.265625 -38.265625 C 59.035156 -45.597656 68.054688 -54.691406 76.328125 -65.546875 C 84.609375 -76.398438 92.207031 -88.140625 99.125 -100.765625 C 106.050781 -113.390625 112.429688 -125.671875 118.265625 -137.609375 C 124.109375 -149.554688 129.609375 -160.007812 134.765625 -168.96875 C 146.160156 -188.78125 158.644531 -207.640625 172.21875 -225.546875 C 185.789062 -243.460938 201.535156 -259.75 219.453125 -274.40625 C 223.796875 -277.664062 228.207031 -278.34375 232.6875 -276.4375 C 237.164062 -274.539062 240.21875 -271.554688 241.84375 -267.484375 C 243.46875 -263.421875 242.109375 -259.757812 237.765625 -256.5 C 220.941406 -244.28125 206.960938 -231.65625 195.828125 -218.625 C 184.703125 -205.601562 175.269531 -192.238281 167.53125 -178.53125 C 159.800781 -164.820312 152.40625 -150.910156 145.34375 -136.796875 C 138.289062 -122.679688 130.421875 -108.429688 121.734375 -94.046875 C 117.117188 -86.179688 112.367188 -78.378906 107.484375 -70.640625 C 102.597656 -62.898438 97.441406 -55.367188 92.015625 -48.046875 C 89.835938 -45.328125 89.5625 -42.472656 91.1875 -39.484375 C 92.820312 -36.503906 95.40625 -35.148438 98.9375 -35.421875 C 106.8125 -35.691406 114.476562 -35.554688 121.9375 -35.015625 C 129.40625 -34.472656 136.800781 -33.660156 144.125 -32.578125 C 153.082031 -31.484375 162.175781 -29.914062 171.40625 -27.875 C 180.632812 -25.84375 189.863281 -25.375 199.09375 -26.46875 C 204.519531 -27.007812 209.675781 -29.242188 214.5625 -33.171875 C 219.445312 -37.109375 223.175781 -41.519531 225.75 -46.40625 C 228.332031 -51.300781 228.601562 -55.375 226.5625 -58.625 C 224.53125 -61.882812 219.3125 -63.109375 210.90625 -62.296875 C 205.46875 -61.753906 201.867188 -63.445312 200.109375 -67.375 C 198.347656 -71.3125 198.347656 -75.519531 200.109375 -80 C 201.867188 -84.476562 205.46875 -86.988281 210.90625 -87.53125 Z M 210.90625 -87.53125 "/></g></g></g><g fill="#f4f3e1" fill-opacity="1"><g transform="translate(1019.883977, 328.491776)"><g><path d="M 240.21875 -276.046875 C 249.988281 -274.679688 257.859375 -271.148438 263.828125 -265.453125 C 269.796875 -259.753906 274.203125 -252.832031 277.046875 -244.6875 C 279.898438 -236.550781 281.664062 -227.9375 282.34375 -218.84375 C 283.03125 -209.75 282.960938 -201.0625 282.140625 -192.78125 C 281.328125 -184.5 280.242188 -177.507812 278.890625 -171.8125 C 272.378906 -145.757812 260.707031 -121.535156 243.875 -99.140625 C 227.050781 -76.742188 207.78125 -57.945312 186.0625 -42.75 C 177.101562 -36.507812 166.988281 -30.398438 155.71875 -24.421875 C 144.457031 -18.453125 132.582031 -13.566406 120.09375 -9.765625 C 107.613281 -5.972656 95.265625 -4.144531 83.046875 -4.28125 C 70.835938 -4.414062 59.304688 -7.601562 48.453125 -13.84375 C 35.691406 -20.894531 25.578125 -29.914062 18.109375 -40.90625 C 10.648438 -51.90625 6.238281 -64.054688 4.875 -77.359375 C 3.519531 -90.660156 5.285156 -104.09375 10.171875 -117.65625 C 16.960938 -135.03125 26.054688 -151.992188 37.453125 -168.546875 C 48.859375 -185.109375 62.09375 -200.515625 77.15625 -214.765625 C 92.21875 -229.015625 108.566406 -241.226562 126.203125 -251.40625 C 143.847656 -261.582031 162.304688 -268.976562 181.578125 -273.59375 C 200.847656 -278.207031 220.394531 -279.023438 240.21875 -276.046875 Z M 253.234375 -178.328125 C 254.054688 -182.941406 254.671875 -188.773438 255.078125 -195.828125 C 255.484375 -202.890625 255.207031 -210.015625 254.25 -217.203125 C 253.300781 -224.398438 251.195312 -230.710938 247.9375 -236.140625 C 244.6875 -241.566406 239.804688 -244.957031 233.296875 -246.3125 C 225.148438 -248.21875 216.597656 -247.609375 207.640625 -244.484375 C 198.679688 -241.367188 191.351562 -236.6875 185.65625 -230.4375 C 185.113281 -229.894531 183.617188 -227.859375 181.171875 -224.328125 C 178.734375 -220.804688 176.222656 -216.671875 173.640625 -211.921875 C 171.066406 -207.171875 169.03125 -202.488281 167.53125 -197.875 C 166.039062 -193.257812 165.90625 -189.390625 167.125 -186.265625 C 168.351562 -183.140625 171.546875 -181.578125 176.703125 -181.578125 C 181.046875 -181.578125 184.300781 -180.285156 186.46875 -177.703125 C 188.644531 -175.128906 189.734375 -172.078125 189.734375 -168.546875 C 189.734375 -165.023438 188.644531 -161.972656 186.46875 -159.390625 C 184.300781 -156.816406 181.046875 -155.53125 176.703125 -155.53125 C 166.660156 -155.257812 158.582031 -157.429688 152.46875 -162.046875 C 146.363281 -166.660156 142.222656 -172.628906 140.046875 -179.953125 C 137.878906 -187.285156 137.539062 -194.953125 139.03125 -202.953125 C 140.53125 -210.960938 143.722656 -218.222656 148.609375 -224.734375 C 149.960938 -226.910156 150.03125 -228.945312 148.8125 -230.84375 C 147.59375 -232.75 145.625 -233.019531 142.90625 -231.65625 C 126.625 -222.976562 112.644531 -212.9375 100.96875 -201.53125 C 89.300781 -190.132812 77.898438 -177.515625 66.765625 -163.671875 C 61.609375 -156.609375 56.046875 -148.734375 50.078125 -140.046875 C 44.109375 -131.367188 39.15625 -122.28125 35.21875 -112.78125 C 31.28125 -103.28125 29.582031 -93.78125 30.125 -84.28125 C 30.9375 -69.894531 35.6875 -58.359375 44.375 -49.671875 C 53.0625 -40.984375 63.847656 -35.484375 76.734375 -33.171875 C 89.628906 -30.867188 102.320312 -31.617188 114.8125 -35.421875 C 130.007812 -40.304688 145.140625 -47.363281 160.203125 -56.59375 C 175.273438 -65.820312 189.320312 -76.742188 202.34375 -89.359375 C 215.375 -101.984375 226.367188 -115.828125 235.328125 -130.890625 C 244.285156 -145.953125 250.253906 -161.765625 253.234375 -178.328125 Z M 253.234375 -178.328125 "/></g></g></g><g fill="#f4f3e1" fill-opacity="1"><g transform="translate(1264.984739, 328.491776)"><g><path d="M 125.40625 -184.4375 C 127.300781 -187.96875 130.351562 -189.9375 134.5625 -190.34375 C 138.769531 -190.75 142.972656 -190.132812 147.171875 -188.5 C 151.378906 -186.875 154.566406 -184.5 156.734375 -181.375 C 158.910156 -178.257812 158.914062 -174.9375 156.75 -171.40625 C 148.332031 -158.101562 140.9375 -146.5 134.5625 -136.59375 C 128.1875 -126.6875 122.210938 -117.59375 116.640625 -109.3125 C 111.078125 -101.039062 105.582031 -92.832031 100.15625 -84.6875 C 94.726562 -76.539062 88.820312 -67.515625 82.4375 -57.609375 C 76.0625 -47.703125 68.53125 -35.960938 59.84375 -22.390625 C 57.132812 -17.773438 53.472656 -15.738281 48.859375 -16.28125 C 44.242188 -16.820312 40.578125 -18.992188 37.859375 -22.796875 C 35.148438 -26.597656 35.148438 -30.804688 37.859375 -35.421875 C 46.546875 -48.722656 54.007812 -60.328125 60.25 -70.234375 C 66.5 -80.140625 72.203125 -89.226562 77.359375 -97.5 C 82.515625 -105.78125 87.46875 -113.992188 92.21875 -122.140625 C 96.96875 -130.285156 101.988281 -139.378906 107.28125 -149.421875 C 112.570312 -159.460938 118.613281 -171.132812 125.40625 -184.4375 Z M 41.53125 4.078125 C 41.53125 8.410156 40.035156 12.003906 37.046875 14.859375 C 34.066406 17.710938 30.539062 19.140625 26.46875 19.140625 C 22.125 19.140625 18.523438 17.710938 15.671875 14.859375 C 12.828125 12.003906 11.40625 8.410156 11.40625 4.078125 C 11.40625 0.00390625 12.828125 -3.523438 15.671875 -6.515625 C 18.523438 -9.503906 22.125 -11 26.46875 -11 C 30.539062 -11 34.066406 -9.503906 37.046875 -6.515625 C 40.035156 -3.523438 41.53125 0.00390625 41.53125 4.078125 Z M 41.53125 4.078125 "/></g></g></g></svg>