<svg xmlns="http://www.w3.org/2000/svg" xmlns:xlink="http://www.w3.org/1999/xlink" width="540" zoomAndPan="magnify" viewBox="0 0 404.88 1439.999935" height="1920" preserveAspectRatio="xMidYMid meet" version="1.0"><defs><g/></defs><g fill="#f4f3e1" fill-opacity="1"><g transform="translate(82.534941, -1.284454)"><g><path d="M 278.953125 412.265625 C 278.953125 418.023438 276.753906 421.796875 272.359375 423.578125 C 267.972656 425.359375 263.585938 425.359375 259.203125 423.578125 C 254.816406 421.796875 252.625 418.023438 252.625 412.265625 C 252.625 398.273438 249.878906 384.96875 244.390625 372.34375 C 234.515625 379.75 223.539062 384.550781 211.46875 386.75 C 199.40625 388.945312 186.515625 387.300781 172.796875 381.8125 C 161.554688 377.425781 151.410156 370.566406 142.359375 361.234375 C 133.304688 351.910156 125.691406 341.144531 119.515625 328.9375 C 113.347656 316.738281 108.820312 303.914062 105.9375 290.46875 C 103.0625 277.03125 102.171875 263.867188 103.265625 250.984375 C 101.898438 250.429688 100.804688 249.742188 99.984375 248.921875 C 99.160156 248.097656 98.335938 247.410156 97.515625 246.859375 C 86.816406 238.359375 75.640625 228.550781 63.984375 217.4375 C 52.328125 206.332031 41.488281 194.265625 31.46875 181.234375 C 21.457031 168.203125 13.707031 154.414062 8.21875 139.875 C 2.738281 125.34375 0.820312 110.398438 2.46875 95.046875 C 3.5625 82.148438 7.125 69.941406 13.15625 58.421875 C 19.195312 46.898438 27.085938 36.890625 36.828125 28.390625 C 46.566406 19.890625 57.601562 13.71875 69.9375 9.875 C 82.28125 6.03125 95.3125 5.34375 109.03125 7.8125 C 124.664062 10.832031 137.691406 17.347656 148.109375 27.359375 C 158.535156 37.367188 166.21875 49.503906 171.15625 63.765625 C 176.09375 78.035156 178.015625 92.710938 176.921875 107.796875 C 176.640625 112.179688 175.054688 115.472656 172.171875 117.671875 C 169.296875 119.867188 166.078125 120.96875 162.515625 120.96875 C 158.953125 120.96875 155.9375 119.867188 153.46875 117.671875 C 151 115.472656 149.898438 112.179688 150.171875 107.796875 C 150.722656 99.835938 150.242188 91.332031 148.734375 82.28125 C 147.222656 73.226562 144.410156 64.929688 140.296875 57.390625 C 136.179688 49.847656 130.148438 44.019531 122.203125 39.90625 C 114.242188 35.789062 105.53125 33.734375 96.0625 33.734375 C 86.601562 33.734375 77.414062 35.445312 68.5 38.875 C 59.582031 42.3125 51.832031 47.390625 45.25 54.109375 C 38.675781 60.828125 34.289062 68.847656 32.09375 78.171875 C 28.53125 92.710938 28.460938 106.703125 31.890625 120.140625 C 35.316406 133.578125 41.003906 146.46875 48.953125 158.8125 C 56.910156 171.15625 66.03125 182.535156 76.3125 192.953125 C 86.601562 203.378906 96.960938 212.707031 107.390625 220.9375 L 109.4375 223 C 113.550781 212.570312 119.65625 203.378906 127.75 195.421875 C 135.84375 187.472656 146.472656 181.71875 159.640625 178.15625 C 163.753906 177.050781 167.179688 177.457031 169.921875 179.375 C 172.660156 181.300781 174.507812 183.976562 175.46875 187.40625 C 176.4375 190.832031 176.234375 194.125 174.859375 197.28125 C 173.484375 200.4375 170.738281 202.5625 166.625 203.65625 C 153.1875 207.5 143.453125 214.632812 137.421875 225.0625 C 135.222656 228.351562 134.601562 232.054688 135.5625 236.171875 C 136.53125 240.285156 138.660156 243.4375 141.953125 245.625 C 159.222656 257.144531 176.632812 269.078125 194.1875 281.421875 C 211.75 293.765625 227.523438 307.34375 241.515625 322.15625 C 243.160156 324.070312 245.148438 324.820312 247.484375 324.40625 C 249.816406 324 251.394531 322.703125 252.21875 320.515625 C 256.050781 311.734375 258.101562 302.539062 258.375 292.9375 C 259.195312 272.363281 256.382812 253.503906 249.9375 236.359375 C 243.5 219.222656 233.285156 202.972656 219.296875 187.609375 C 216.273438 184.597656 214.96875 181.375 215.375 177.9375 C 215.789062 174.507812 217.234375 171.628906 219.703125 169.296875 C 222.171875 166.972656 225.117188 165.601562 228.546875 165.1875 C 231.984375 164.78125 235.207031 166.082031 238.21875 169.09375 C 250.5625 182.539062 261.117188 197.972656 269.890625 215.390625 C 278.671875 232.804688 284.160156 251.113281 286.359375 270.3125 C 288.554688 289.507812 285.953125 308.160156 278.546875 326.265625 C 274.972656 335.316406 270.582031 343.546875 265.375 350.953125 C 264.28125 351.503906 264.003906 352.738281 264.546875 354.65625 C 269.210938 363.15625 272.847656 372.207031 275.453125 381.8125 C 278.054688 391.414062 279.222656 401.566406 278.953125 412.265625 Z M 176.09375 353.84375 C 186.519531 359.320312 196.328125 361.441406 205.515625 360.203125 C 214.703125 358.972656 223 355.476562 230.40625 349.71875 C 222.445312 339.019531 212.84375 329.007812 201.59375 319.6875 C 190.351562 310.363281 178.425781 301.585938 165.8125 293.359375 C 153.195312 285.128906 140.988281 276.898438 129.1875 268.671875 C 130.289062 280.460938 133.035156 292.050781 137.421875 303.4375 C 141.804688 314.820312 147.359375 324.96875 154.078125 333.875 C 160.796875 342.789062 168.132812 349.445312 176.09375 353.84375 Z M 176.09375 353.84375 "/></g></g></g><g fill="#f4f3e1" fill-opacity="1"><g transform="translate(82.534941, 338.558179)"><g><path d="M 278.546875 345.203125 C 281.554688 350.140625 281.691406 354.457031 278.953125 358.15625 C 276.210938 361.851562 272.507812 364.046875 267.84375 364.734375 C 263.175781 365.421875 259.335938 363.296875 256.328125 358.359375 C 244.253906 338.066406 229.578125 320.441406 212.296875 305.484375 C 195.015625 290.535156 176.5 276.890625 156.75 264.546875 C 155.113281 268.117188 152.304688 270.382812 148.328125 271.34375 C 144.347656 272.300781 140.644531 271.816406 137.21875 269.890625 C 133.789062 267.972656 132.078125 264.410156 132.078125 259.203125 L 132.078125 250.15625 C 130.703125 249.601562 129.460938 248.914062 128.359375 248.09375 C 127.265625 247.269531 126.035156 246.585938 124.671875 246.046875 C 110.679688 238.359375 95.867188 230.125 80.234375 221.34375 C 64.597656 212.570312 49.851562 202.769531 36 191.9375 C 22.144531 181.101562 10.832031 168.554688 2.0625 154.296875 C -0.6875 149.628906 -0.691406 145.441406 2.046875 141.734375 C 4.796875 138.035156 8.5 135.910156 13.15625 135.359375 C 17.820312 134.816406 21.53125 136.875 24.28125 141.53125 C 34.15625 157.71875 47.59375 171.429688 64.59375 182.671875 C 81.601562 193.921875 99.019531 204.207031 116.84375 213.53125 C 120.414062 215.457031 123.847656 215.390625 127.140625 213.328125 C 130.429688 211.273438 132.078125 208.328125 132.078125 204.484375 L 132.078125 155.109375 C 132.078125 147.429688 129.054688 141.8125 123.015625 138.25 C 120.828125 136.601562 118.703125 135.023438 116.640625 133.515625 C 114.585938 132.003906 112.460938 130.5625 110.265625 129.1875 C 96.546875 119.863281 82.828125 109.988281 69.109375 99.5625 C 55.398438 89.144531 42.71875 77.765625 31.0625 65.421875 C 19.40625 53.078125 9.738281 39.222656 2.0625 23.859375 C -0.40625 18.921875 -0.203125 14.53125 2.671875 10.6875 C 5.554688 6.851562 9.257812 4.726562 13.78125 4.3125 C 18.3125 3.90625 21.8125 6.171875 24.28125 11.109375 C 31.957031 26.191406 41.554688 39.695312 53.078125 51.625 C 64.597656 63.5625 77.210938 74.46875 90.921875 84.34375 C 104.640625 94.21875 118.492188 103.816406 132.484375 113.140625 C 133.304688 108.753906 135.773438 105.875 139.890625 104.5 C 144.003906 103.132812 148.046875 103.410156 152.015625 105.328125 C 155.992188 107.242188 157.984375 110.8125 157.984375 116.03125 L 157.984375 120.140625 C 157.984375 126.992188 160.726562 132.34375 166.21875 136.1875 L 167.046875 137.015625 C 181.578125 146.890625 195.492188 157.242188 208.796875 168.078125 C 222.109375 178.910156 234.660156 190.5 246.453125 202.84375 C 247.828125 203.9375 249.195312 204.140625 250.5625 203.453125 C 251.9375 202.765625 252.488281 201.738281 252.21875 200.375 C 251.664062 195.976562 250.84375 191.585938 249.75 187.203125 C 248.101562 181.992188 248.992188 177.945312 252.421875 175.0625 C 255.847656 172.1875 259.957031 171.085938 264.75 171.765625 C 269.550781 172.453125 272.773438 175.265625 274.421875 180.203125 C 276.617188 185.960938 278.195312 191.585938 279.15625 197.078125 C 280.113281 202.566406 280.320312 208.328125 279.78125 214.359375 C 279.226562 220.671875 278.332031 225.742188 277.09375 229.578125 C 275.863281 233.421875 276.894531 238.359375 280.1875 244.390625 C 282.925781 249.328125 282.992188 253.578125 280.390625 257.140625 C 277.785156 260.710938 274.21875 262.769531 269.6875 263.3125 C 265.164062 263.863281 261.257812 261.8125 257.96875 257.15625 C 246.175781 239.59375 232.734375 223.882812 217.640625 210.03125 C 202.554688 196.1875 186.648438 183.09375 169.921875 170.75 C 167.453125 168.820312 164.84375 168.613281 162.09375 170.125 C 159.351562 171.632812 157.984375 173.898438 157.984375 176.921875 L 157.984375 220.53125 C 157.984375 229.851562 161.960938 236.984375 169.921875 241.921875 L 183.5 250.5625 C 201.875 263.175781 219.425781 277.234375 236.15625 292.734375 C 252.894531 308.234375 267.023438 325.722656 278.546875 345.203125 Z M 278.546875 345.203125 "/></g></g></g><g fill="#f4f3e1" fill-opacity="1"><g transform="translate(82.534941, 594.880198)"><g><path d="M 277.3125 168.28125 L 278.546875 255.5 C 278.546875 260.988281 276.347656 264.625 271.953125 266.40625 C 267.566406 268.1875 263.25 268.1875 259 266.40625 C 254.75 264.625 252.625 260.988281 252.625 255.5 L 252.625 244.390625 C 252.625 240.003906 251.9375 235.753906 250.5625 231.640625 C 249.195312 227.523438 246.867188 223.957031 243.578125 220.9375 C 224.367188 205.03125 205.847656 190.90625 188.015625 178.5625 C 170.191406 166.21875 152.707031 154.695312 135.5625 144 C 118.425781 133.300781 101.421875 122.671875 84.546875 112.109375 C 67.679688 101.554688 50.609375 90.109375 33.328125 77.765625 C 31.679688 76.660156 29.96875 76.519531 28.1875 77.34375 C 26.40625 78.164062 25.515625 79.539062 25.515625 81.46875 L 25.515625 92.578125 C 25.515625 94.492188 25.515625 96.34375 25.515625 98.125 C 25.515625 99.90625 25.648438 101.757812 25.921875 103.6875 C 25.921875 109.164062 23.722656 112.796875 19.328125 114.578125 C 14.941406 116.367188 10.625 116.367188 6.375 114.578125 C 2.125 112.796875 0 109.164062 0 103.6875 C -0.269531 89.144531 -0.269531 74.671875 0 60.265625 C 0.269531 45.867188 0.269531 31.265625 0 16.453125 C 0 10.972656 2.125 7.335938 6.375 5.546875 C 10.625 3.765625 14.941406 3.765625 19.328125 5.546875 C 23.722656 7.335938 25.921875 10.972656 25.921875 16.453125 L 25.921875 26.328125 C 25.921875 36.484375 30.171875 44.03125 38.671875 48.96875 C 47.992188 54.445312 59.925781 61.78125 74.46875 70.96875 C 89.007812 80.15625 105.125 90.644531 122.8125 102.4375 C 140.507812 114.238281 159.023438 126.582031 178.359375 139.46875 C 197.691406 152.363281 216.960938 165.257812 236.171875 178.15625 C 239.734375 180.34375 243.226562 180.679688 246.65625 179.171875 C 250.082031 177.671875 251.796875 174.863281 251.796875 170.75 L 251.796875 168.28125 C 251.796875 162.789062 253.921875 159.085938 258.171875 157.171875 C 262.421875 155.253906 266.671875 155.253906 270.921875 157.171875 C 275.179688 159.085938 277.3125 162.789062 277.3125 168.28125 Z M 277.3125 168.28125 "/></g></g></g><g fill="#f4f3e1" fill-opacity="1"><g transform="translate(82.534941, 750.812935)"><g><path d="M 88.453125 213.125 C 89.554688 224.644531 87.429688 234.109375 82.078125 241.515625 C 76.734375 248.921875 69.671875 253.785156 60.890625 256.109375 C 52.117188 258.441406 43.207031 257.894531 34.15625 254.46875 C 25.101562 251.039062 17.554688 244.53125 11.515625 234.9375 C 3.835938 223.132812 0.34375 210.582031 1.03125 197.28125 C 1.71875 183.976562 3.15625 170.609375 5.34375 157.171875 C 8.09375 141.535156 9.804688 125.078125 10.484375 107.796875 C 11.171875 90.515625 9.320312 73.921875 4.9375 58.015625 C 4.113281 54.992188 3.289062 52.113281 2.46875 49.375 C 1.644531 46.632812 0.546875 43.890625 -0.828125 41.140625 C -3.015625 36.753906 -3.765625 31.539062 -3.078125 25.5 C -2.398438 19.46875 -0.484375 14.328125 2.671875 10.078125 C 5.828125 5.828125 9.875 4.25 14.8125 5.34375 C 20.84375 6.71875 24.410156 10.695312 25.515625 17.28125 C 26.878906 29.070312 31.265625 39.90625 38.671875 49.78125 C 46.078125 59.65625 55.265625 68.773438 66.234375 77.140625 C 77.210938 85.503906 89.078125 93.179688 101.828125 100.171875 C 114.585938 107.171875 127 113.617188 139.0625 119.515625 C 151.132812 125.421875 161.695312 130.976562 170.75 136.1875 C 190.769531 147.707031 209.832031 160.320312 227.9375 174.03125 C 246.039062 187.75 262.5 203.660156 277.3125 221.765625 C 280.601562 226.148438 281.285156 230.601562 279.359375 235.125 C 277.441406 239.65625 274.425781 242.742188 270.3125 244.390625 C 266.195312 246.035156 262.492188 244.664062 259.203125 240.28125 C 246.859375 223.269531 234.101562 209.140625 220.9375 197.890625 C 207.769531 186.648438 194.257812 177.117188 180.40625 169.296875 C 166.5625 161.484375 152.503906 154.007812 138.234375 146.875 C 123.972656 139.75 109.578125 131.796875 95.046875 123.015625 C 87.085938 118.359375 79.195312 113.5625 71.375 108.625 C 63.5625 103.6875 55.953125 98.472656 48.546875 92.984375 C 45.804688 90.785156 42.925781 90.507812 39.90625 92.15625 C 36.894531 93.800781 35.523438 96.410156 35.796875 99.984375 C 36.066406 107.929688 35.925781 115.675781 35.375 123.21875 C 34.832031 130.769531 34.015625 138.25 32.921875 145.65625 C 31.816406 154.695312 30.234375 163.878906 28.171875 173.203125 C 26.117188 182.535156 25.644531 191.863281 26.75 201.1875 C 27.289062 206.675781 29.550781 211.890625 33.53125 216.828125 C 37.507812 221.765625 41.96875 225.535156 46.90625 228.140625 C 51.84375 230.742188 55.957031 231.015625 59.25 228.953125 C 62.539062 226.898438 63.773438 221.625 62.953125 213.125 C 62.398438 207.632812 64.113281 204 68.09375 202.21875 C 72.070312 200.4375 76.320312 200.4375 80.84375 202.21875 C 85.375 204 87.910156 207.632812 88.453125 213.125 Z M 88.453125 213.125 "/></g></g></g><g fill="#f4f3e1" fill-opacity="1"><g transform="translate(82.534941, 1023.180794)"><g><path d="M 278.953125 242.75 C 277.578125 252.625 274.007812 260.578125 268.25 266.609375 C 262.488281 272.640625 255.492188 277.09375 247.265625 279.96875 C 239.046875 282.851562 230.335938 284.640625 221.140625 285.328125 C 211.953125 286.015625 203.175781 285.945312 194.8125 285.125 C 186.445312 284.300781 179.382812 283.203125 173.625 281.828125 C 147.289062 275.242188 122.804688 263.445312 100.171875 246.4375 C 77.546875 229.4375 58.554688 209.96875 43.203125 188.03125 C 36.890625 178.976562 30.71875 168.757812 24.6875 157.375 C 18.65625 145.988281 13.71875 133.988281 9.875 121.375 C 6.03125 108.757812 4.175781 96.28125 4.3125 83.9375 C 4.457031 71.59375 7.679688 59.9375 13.984375 48.96875 C 21.117188 36.070312 30.238281 25.851562 41.34375 18.3125 C 52.457031 10.769531 64.734375 6.3125 78.171875 4.9375 C 91.609375 3.5625 105.1875 5.34375 118.90625 10.28125 C 136.457031 17.144531 153.597656 26.332031 170.328125 37.84375 C 187.066406 49.363281 202.632812 62.734375 217.03125 77.953125 C 231.4375 93.179688 243.78125 109.710938 254.0625 127.546875 C 264.34375 145.378906 271.816406 164.03125 276.484375 183.5 C 281.148438 202.976562 281.972656 222.726562 278.953125 242.75 Z M 180.203125 255.921875 C 184.867188 256.742188 190.765625 257.359375 197.890625 257.765625 C 205.023438 258.171875 212.226562 257.894531 219.5 256.9375 C 226.769531 255.976562 233.144531 253.851562 238.625 250.5625 C 244.113281 247.269531 247.546875 242.332031 248.921875 235.75 C 250.835938 227.519531 250.21875 218.878906 247.0625 209.828125 C 243.914062 200.773438 239.1875 193.367188 232.875 187.609375 C 232.320312 187.066406 230.265625 185.5625 226.703125 183.09375 C 223.140625 180.625 218.957031 178.082031 214.15625 175.46875 C 209.351562 172.863281 204.617188 170.804688 199.953125 169.296875 C 195.296875 167.796875 191.390625 167.660156 188.234375 168.890625 C 185.078125 170.128906 183.5 173.351562 183.5 178.5625 C 183.5 182.945312 182.195312 186.238281 179.59375 188.4375 C 176.988281 190.632812 173.898438 191.734375 170.328125 191.734375 C 166.765625 191.734375 163.679688 190.632812 161.078125 188.4375 C 158.472656 186.238281 157.171875 182.945312 157.171875 178.5625 C 156.890625 168.414062 159.082031 160.253906 163.75 154.078125 C 168.414062 147.910156 174.453125 143.726562 181.859375 141.53125 C 189.265625 139.34375 197.007812 139 205.09375 140.5 C 213.1875 142.007812 220.523438 145.234375 227.109375 150.171875 C 229.304688 151.546875 231.363281 151.613281 233.28125 150.375 C 235.207031 149.144531 235.484375 147.160156 234.109375 144.421875 C 225.328125 127.960938 215.175781 113.832031 203.65625 102.03125 C 192.132812 90.238281 179.378906 78.71875 165.390625 67.46875 C 158.265625 62.257812 150.3125 56.640625 141.53125 50.609375 C 132.757812 44.578125 123.570312 39.570312 113.96875 35.59375 C 104.363281 31.613281 94.765625 29.898438 85.171875 30.453125 C 70.628906 31.273438 58.96875 36.070312 50.1875 44.84375 C 41.414062 53.625 35.863281 64.523438 33.53125 77.546875 C 31.195312 90.578125 31.953125 103.40625 35.796875 116.03125 C 40.734375 131.382812 47.863281 146.671875 57.1875 161.890625 C 66.507812 177.117188 77.546875 191.316406 90.296875 204.484375 C 103.054688 217.648438 117.046875 228.757812 132.265625 237.8125 C 147.492188 246.863281 163.472656 252.898438 180.203125 255.921875 Z M 180.203125 255.921875 "/></g></g></g><g fill="#f4f3e1" fill-opacity="1"><g transform="translate(82.534941, 1270.862799)"><g><path d="M 186.375 126.71875 C 189.945312 128.644531 191.9375 131.734375 192.34375 135.984375 C 192.757812 140.234375 192.144531 144.484375 190.5 148.734375 C 188.851562 152.984375 186.453125 156.203125 183.296875 158.390625 C 180.140625 160.585938 176.78125 160.59375 173.21875 158.40625 C 159.78125 149.90625 148.050781 142.429688 138.03125 135.984375 C 128.019531 129.535156 118.832031 123.5 110.46875 117.875 C 102.101562 112.25 93.804688 106.691406 85.578125 101.203125 C 77.347656 95.722656 68.226562 89.757812 58.21875 83.3125 C 48.207031 76.863281 36.34375 69.253906 22.625 60.484375 C 17.96875 57.734375 15.910156 54.023438 16.453125 49.359375 C 17.003906 44.703125 19.195312 41.003906 23.03125 38.265625 C 26.875 35.523438 31.128906 35.523438 35.796875 38.265625 C 49.234375 47.046875 60.957031 54.585938 70.96875 60.890625 C 80.976562 67.203125 90.164062 72.960938 98.53125 78.171875 C 106.90625 83.378906 115.207031 88.382812 123.4375 93.1875 C 131.664062 97.988281 140.851562 103.0625 151 108.40625 C 161.144531 113.757812 172.9375 119.863281 186.375 126.71875 Z M -4.109375 41.96875 C -8.503906 41.96875 -12.140625 40.457031 -15.015625 37.4375 C -17.898438 34.425781 -19.34375 30.863281 -19.34375 26.75 C -19.34375 22.351562 -17.898438 18.710938 -15.015625 15.828125 C -12.140625 12.953125 -8.503906 11.515625 -4.109375 11.515625 C 0.00390625 11.515625 3.566406 12.953125 6.578125 15.828125 C 9.597656 18.710938 11.109375 22.351562 11.109375 26.75 C 11.109375 30.863281 9.597656 34.425781 6.578125 37.4375 C 3.566406 40.457031 0.00390625 41.96875 -4.109375 41.96875 Z M -4.109375 41.96875 "/></g></g></g></svg>